<svg width="50" height="33" viewBox="0 0 50 33" fill="currentColor" xmlns="http://www.w3.org/2000/svg">
<path d="M17.0469 12.7421L13.4219 6.49207L2.60938 12.7421L0.265625 8.71082L15.1719 0.117065L18.7656 6.36707L29.6094 0.117065L33.2031 6.36707L44.0469 0.117065L49.9844 10.3983L45.9219 12.7421L42.2969 6.49207L31.4844 12.7421L27.8594 6.49207L17.0469 12.7421ZM17.0469 32.7421L13.4219 26.4921L2.60938 32.7421L0.265625 28.7108L15.1719 20.1171L18.7656 26.3671L29.6094 20.1171L33.2031 26.3671L44.0469 20.1171L49.9844 30.3983L45.9219 32.7421L42.2969 26.4921L31.4844 32.7421L27.8594 26.4921L17.0469 32.7421Z"/>
</svg>
