<svg width="51" height="49" viewBox="0 0 51 49" fill="currentColor" xmlns="http://www.w3.org/2000/svg">
<path d="M23.2812 48.1796V44.3983C23.2812 41.4192 22.6354 36.1067 21.3438 28.4608C20.7604 24.8567 19.8021 21.1067 18.4688 17.2108C17.1146 13.2525 15.6979 10.1484 14.2188 7.89833C13.0729 6.19004 11.7083 5.33587 10.125 5.33583C8.33332 5.33587 7.08333 6.02337 6.375 7.39833C5.72916 8.6692 5.40624 10.0546 5.40625 11.5546C5.40624 14.7213 6.54166 17.5859 8.8125 20.1483H3.5C1.66666 17.3359 0.749998 14.3671 0.75 11.2421C0.749998 7.97129 1.625 5.40879 3.375 3.55458C5.18749 1.63796 7.38541 0.679628 9.96875 0.679581C13.3021 0.679628 15.9062 2.05463 17.7812 4.80458C19.9062 7.90879 21.6771 11.6796 23.0938 16.1171C24.0937 19.3463 24.9375 22.9192 25.625 26.8358C26.3125 22.9192 27.1562 19.3463 28.1562 16.1171C29.4896 11.7838 31.2604 8.01295 33.4688 4.80458C35.3437 2.05463 37.9479 0.679628 41.2812 0.679581C43.8645 0.679628 46.0625 1.63796 47.875 3.55458C49.6249 5.40879 50.4999 7.97129 50.5 11.2421C50.4999 14.3671 49.5833 17.3359 47.75 20.1483H42.4375C44.7083 17.5859 45.8437 14.7213 45.8438 11.5546C45.8437 10.0546 45.5208 8.6692 44.875 7.39833C44.1666 6.02337 42.9166 5.33587 41.125 5.33583C39.5416 5.33587 38.177 6.19004 37.0312 7.89833C35.552 10.1484 34.1354 13.2525 32.7812 17.2108C31.4479 21.1067 30.4896 24.8567 29.9062 28.4608C28.6146 36.1067 27.9687 41.4192 27.9688 44.3983V48.1796H23.2812Z"/>
</svg>
