<svg width="46" height="37" viewBox="0 0 46 37" fill="currentColor" xmlns="http://www.w3.org/2000/svg">
<path d="M0.265625 25.914C2.16146 27.1223 3.98436 28.1015 5.73438 28.8515C10.1927 30.789 15.1406 31.7577 20.5781 31.7577C23.9948 31.7577 27.2343 31.3723 30.2969 30.6015C30.026 30.3723 29.776 30.1431 29.5469 29.914C28.6093 28.9556 27.9218 27.9348 27.4844 26.8515C27.026 25.7265 26.7968 24.5286 26.7969 23.2577C26.7968 22.0077 27.026 20.8202 27.4844 19.6952C27.9635 18.5077 28.651 17.4869 29.5469 16.6327C30.526 15.6952 31.5364 15.0077 32.5781 14.5702C33.6614 14.1119 34.8489 13.8827 36.1406 13.8827C37.4948 13.8827 38.6823 14.1119 39.7031 14.5702C40.9114 15.1119 41.9218 15.7994 42.7344 16.6327C43.6718 17.5911 44.3593 18.6119 44.7969 19.6952C45.2552 20.8202 45.4843 22.0077 45.4844 23.2577C45.4843 24.5077 45.2552 25.7056 44.7969 26.8515C44.2968 28.1015 43.5052 29.1744 42.4219 30.0702C40.901 31.3202 39.1614 32.3619 37.2031 33.1952C32.1198 35.3619 26.5781 36.4452 20.5781 36.4452C14.4323 36.4452 8.89061 35.3619 3.95312 33.1952C2.68229 32.6327 1.45312 32.039 0.265625 31.414V25.914ZM34.3594 27.6327C34.901 27.8619 35.4948 27.9765 36.1406 27.9765C36.7864 27.9765 37.3802 27.8619 37.9219 27.6327C38.4843 27.3827 38.9948 27.039 39.4531 26.6015C39.8698 26.1848 40.2135 25.6744 40.4844 25.0702C40.7135 24.5077 40.8281 23.9036 40.8281 23.2577C40.8281 22.6327 40.7135 22.039 40.4844 21.4765C40.2552 20.9348 39.9114 20.4244 39.4531 19.9452C39.0573 19.5494 38.5468 19.2056 37.9219 18.914C37.3802 18.6848 36.7864 18.5702 36.1406 18.5702C35.4948 18.5702 34.901 18.6848 34.3594 18.914C33.7968 19.164 33.2864 19.5077 32.8281 19.9452C32.4114 20.3619 32.0677 20.8723 31.7969 21.4765C31.5677 22.039 31.4531 22.6327 31.4531 23.2577C31.4531 23.9036 31.5677 24.5077 31.7969 25.0702C32.026 25.6119 32.3698 26.1223 32.8281 26.6015C33.2239 26.9973 33.7343 27.3411 34.3594 27.6327ZM45.4844 10.9452C43.5885 9.7369 41.7656 8.75774 40.0156 8.00771C35.5573 6.07024 30.6093 5.10149 25.1719 5.10146C21.7552 5.10149 18.5156 5.48691 15.4531 6.25771C15.7239 6.48691 15.9739 6.71607 16.2031 6.94521C17.1406 7.90357 17.8281 8.9244 18.2656 10.0077C18.7239 11.1327 18.9531 12.3307 18.9531 13.6015C18.9531 14.8515 18.7239 16.039 18.2656 17.164C17.7864 18.3515 17.0989 19.3723 16.2031 20.2265C15.2239 21.164 14.2135 21.8515 13.1719 22.289C12.0885 22.7473 10.901 22.9765 9.60938 22.9765C8.2552 22.9765 7.0677 22.7473 6.04688 22.289C4.83853 21.7473 3.82812 21.0598 3.01562 20.2265C2.07812 19.2681 1.39062 18.2473 0.953125 17.164C0.494795 16.039 0.265625 14.8515 0.265625 13.6015C0.265625 12.3515 0.494795 11.1536 0.953125 10.0077C1.45312 8.75774 2.24479 7.68482 3.32812 6.78896C4.84896 5.53899 6.58853 4.49733 8.54688 3.66396C13.6302 1.49733 19.1718 0.413997 25.1719 0.413956C31.3177 0.413997 36.8593 1.49733 41.7969 3.66396C43.0677 4.22649 44.2968 4.82024 45.4844 5.44521V10.9452ZM11.3906 9.22646C10.8489 8.99732 10.2552 8.88274 9.60938 8.88271C8.96352 8.88274 8.36979 8.99732 7.82812 9.22646C7.26561 9.47649 6.75519 9.82024 6.29688 10.2577C5.88019 10.6744 5.53646 11.1848 5.26562 11.789C5.03646 12.3515 4.92187 12.9557 4.92188 13.6015C4.92187 14.2265 5.03646 14.8202 5.26562 15.3827C5.49478 15.9244 5.83852 16.4348 6.29688 16.914C6.69269 17.3098 7.20311 17.6536 7.82812 17.9452C8.36979 18.1744 8.96352 18.289 9.60938 18.289C10.2552 18.289 10.8489 18.1744 11.3906 17.9452C11.9531 17.6952 12.4635 17.3515 12.9219 16.914C13.3385 16.4973 13.6823 15.9869 13.9531 15.3827C14.1823 14.8202 14.2969 14.2265 14.2969 13.6015C14.2969 12.9557 14.1823 12.3515 13.9531 11.789C13.7239 11.2473 13.3802 10.7369 12.9219 10.2577C12.526 9.8619 12.0156 9.51815 11.3906 9.22646Z"/>
</svg>
