<svg viewBox="0 0 28 28" fill="currentColor" xmlns="http://www.w3.org/2000/svg">
<g clip-path="url(#clip0_290_59)">
<path d="M10.2639 11.6996L9.85203 15.9863L13.7735 17.7826L14.1854 13.496L10.2639 11.6996ZM20.5948 5.79092L21.4768 6.04158C22.0232 6.16524 22.4323 6.46966 22.704 6.95485C22.9757 7.44004 23.0415 7.9573 22.9015 8.50663L21.806 12.66L20.5948 5.79092ZM16.2779 4.34355C16.8196 4.24805 17.318 4.36325 17.7731 4.68916C18.2283 5.01507 18.5037 5.44885 18.5992 5.99049L19.6367 11.8747L15.726 5.10089C15.6565 4.99468 15.596 4.89112 15.5443 4.79022C15.4927 4.68932 15.4172 4.59687 15.3177 4.51286L16.2779 4.34355ZM11.2279 5.36094C11.7048 5.09067 12.218 5.02558 12.7673 5.16565C13.3167 5.30572 13.7265 5.61424 13.9967 6.09122L20.4774 17.3621C20.7476 17.8391 20.812 18.3481 20.6705 18.8893C20.529 19.4304 20.2197 19.8361 19.7427 20.1064L12.8096 24.1213C12.3326 24.3916 11.8236 24.4559 11.2824 24.3144C10.7413 24.1729 10.3356 23.8636 10.0653 23.3867L3.56009 12.1201C3.28982 11.6431 3.22545 11.1341 3.36697 10.593C3.50849 10.0518 3.81773 9.64613 4.29472 9.37587L11.2279 5.36094ZM12.2428 7.0859L5.28505 11.1052L11.8193 22.392L18.7524 18.3771L12.2428 7.0859Z"/>
</g>
<defs>
<clipPath id="clip0_290_59">
<rect width="24" height="24" transform="translate(27.803 23.6354) rotate(170)"/>
</clipPath>
</defs>
</svg>
