<svg width="39" height="50" viewBox="0 0 39 50" fill="currentColor" xmlns="http://www.w3.org/2000/svg">
<path d="M27.0938 38.414C26.9062 39.1431 26.8125 39.7473 26.8125 40.2265C26.8125 40.9556 26.9062 41.5494 27.0938 42.0077C27.3437 42.5494 27.6354 42.9765 27.9688 43.289C28.3437 43.6431 28.7604 43.9244 29.2188 44.1327C29.677 44.341 30.3854 44.4452 31.3438 44.4452C32.1979 44.4452 32.9479 44.2994 33.5938 44.0077C34.4062 43.6535 35.0937 43.2056 35.6562 42.664L38.9688 45.9765C38.052 46.8515 36.8437 47.6431 35.3438 48.3515C34.2604 48.8723 32.927 49.1327 31.3438 49.1327C29.7395 49.1327 28.4479 48.914 27.4688 48.4765C26.3437 47.9765 25.4062 47.3515 24.6562 46.6015C23.8229 45.7681 23.1979 44.841 22.7812 43.8202C22.3646 42.7785 22.1562 41.5806 22.1562 40.2265C22.1562 38.7473 22.375 37.4556 22.8125 36.3515C24.3958 32.4556 25.9375 29.5181 27.4375 27.539C29.3125 25.0598 30.7604 22.4244 31.7812 19.6327C32.2395 18.4036 32.4687 17.0077 32.4688 15.4452C32.4687 13.7577 32.2395 12.3515 31.7812 11.2265C31.3437 10.1432 30.6562 9.12233 29.7188 8.16396C28.9062 7.33066 27.8958 6.64316 26.6875 6.10146C25.6666 5.64316 24.4791 5.414 23.125 5.41396C21.8333 5.414 20.6458 5.64316 19.5625 6.10146C18.5208 6.539 17.5104 7.2265 16.5312 8.16396C15.6354 9.01816 14.9479 10.039 14.4688 11.2265C14.0104 12.3515 13.7812 13.5494 13.7812 14.8202C13.7812 16.1744 14.0104 17.3619 14.4688 18.3827C15.0312 19.6119 15.8333 21.1536 16.875 23.0077C18.2708 25.4452 18.9687 27.7577 18.9688 29.9452C18.9687 31.1952 18.7396 32.3827 18.2812 33.5077C17.8437 34.591 17.1562 35.6119 16.2188 36.5702C15.4062 37.4035 14.3958 38.091 13.1875 38.6327C12.1666 39.091 10.9791 39.3202 9.625 39.3202C8.33332 39.3202 7.14582 39.091 6.0625 38.6327C5.02082 38.1952 4.01041 37.5077 3.03125 36.5702C2.13541 35.716 1.44791 34.6952 0.96875 33.5077C0.510409 32.3827 0.281242 31.1952 0.28125 29.9452C0.281242 28.6744 0.510409 27.4765 0.96875 26.3515C1.40624 25.2681 2.09374 24.2473 3.03125 23.289C3.84374 22.4556 4.85415 21.7681 6.0625 21.2265C7.08332 20.7681 8.27082 20.539 9.625 20.539H10.1562C9.4479 18.9348 9.09373 17.039 9.09375 14.8515C9.09373 12.8307 9.43748 11.0182 10.125 9.41396C10.875 7.664 11.9062 6.13275 13.2188 4.82021C14.5312 3.50775 16.0521 2.48692 17.7812 1.75771C19.4062 1.07025 21.1875 0.726496 23.125 0.726456C25.1666 0.726496 26.9479 1.07025 28.4688 1.75771C30.2812 2.57025 31.802 3.59108 33.0312 4.82021C34.4062 6.19525 35.4375 7.7265 36.125 9.41396C36.8125 11.1015 37.1562 13.1223 37.1562 15.4765C37.1562 17.8098 36.8125 19.7994 36.125 21.4452C34.8333 24.5911 33.2395 27.4869 31.3438 30.1327C29.1979 33.1952 27.7812 35.9556 27.0938 38.414ZM11.4062 25.5702C10.8646 25.3411 10.2708 25.2265 9.625 25.2265C8.97915 25.2265 8.3854 25.3411 7.84375 25.5702C7.28123 25.8202 6.77082 26.164 6.3125 26.6015C5.85415 27.0806 5.5104 27.5911 5.28125 28.1327C5.05207 28.6952 4.93749 29.2994 4.9375 29.9452C4.93749 30.5702 5.05207 31.164 5.28125 31.7265C5.5104 32.2681 5.85415 32.7785 6.3125 33.2577C6.77082 33.6952 7.28123 34.039 7.84375 34.289C8.3854 34.5181 8.97915 34.6327 9.625 34.6327C10.2708 34.6327 10.8646 34.5181 11.4062 34.289C11.9687 34.039 12.4791 33.6952 12.9375 33.2577C13.3958 32.7785 13.7396 32.2681 13.9688 31.7265C14.1979 31.164 14.3125 30.5702 14.3125 29.9452C14.3125 29.2994 14.1979 28.6952 13.9688 28.1327C13.7396 27.5911 13.3958 27.0806 12.9375 26.6015C12.4791 26.164 11.9687 25.8202 11.4062 25.5702Z"/>
</svg>
