<svg width="48" height="44" viewBox="0 0 48 44" fill="currentColor" xmlns="http://www.w3.org/2000/svg">
<path d="M18.6562 29.0702H0.8125V24.3827H11.5625C10.8125 23.4244 10.1875 22.3827 9.6875 21.2577C8.91666 19.4869 8.53124 17.6119 8.53125 15.6327C8.53124 13.5911 8.91666 11.6848 9.6875 9.91396C10.5 8.08066 11.6458 6.46608 13.125 5.07021C14.6042 3.67441 16.2917 2.59108 18.1875 1.82021C20 1.09108 21.9791 0.726496 24.125 0.726456C26.375 0.726496 28.3541 1.09108 30.0625 1.82021C32.0416 2.67442 33.7291 3.75775 35.125 5.07021C36.6041 6.46608 37.75 8.08066 38.5625 9.91396C39.3333 11.6848 39.7187 13.5911 39.7188 15.6327C39.7187 17.6119 39.3333 19.4869 38.5625 21.2577C38.0625 22.3827 37.4375 23.4244 36.6875 24.3827H47.4375V29.0702H29.5625V24.3827C30.3541 23.9452 31.1041 23.414 31.8125 22.789C32.8333 21.8931 33.6354 20.789 34.2188 19.4765C34.7604 18.2473 35.0312 16.9556 35.0312 15.6015C35.0312 14.2265 34.7604 12.9244 34.2188 11.6952C33.6562 10.4661 32.8541 9.36191 31.8125 8.38271C30.8333 7.48691 29.6562 6.74733 28.2812 6.16396C27.0937 5.664 25.7083 5.414 24.125 5.41396C22.625 5.414 21.2396 5.664 19.9688 6.16396C18.6562 6.68483 17.4792 7.42441 16.4375 8.38271C15.3958 9.36191 14.5937 10.4661 14.0312 11.6952C13.4896 12.9244 13.2187 14.2265 13.2188 15.6015C13.2187 16.9556 13.4896 18.2473 14.0312 19.4765C14.5937 20.7056 15.3958 21.8098 16.4375 22.789C17.0833 23.3931 17.8229 23.9244 18.6562 24.3827V29.0702ZM0.8125 43.1327V38.4452H47.4375V43.1327H0.8125Z"/>
</svg>
