<svg width="24" height="24" viewBox="0 0 24 24" fill="currentColor" xmlns="http://www.w3.org/2000/svg">
<path d="M5.85 19.1C6.7 18.45 7.65 17.9375 8.7 17.5625C9.75 17.1875 10.85 17 12 17C13.15 17 14.25 17.1875 15.3 17.5625C16.35 17.9375 17.3 18.45 18.15 19.1C18.7333 18.4167 19.1875 17.6417 19.5125 16.775C19.8375 15.9083 20 14.9833 20 14C20 11.7833 19.2208 9.89583 17.6625 8.3375C16.1042 6.77917 14.2167 6 12 6C9.78333 6 7.89583 6.77917 6.3375 8.3375C4.77917 9.89583 4 11.7833 4 14C4 14.9833 4.1625 15.9083 4.4875 16.775C4.8125 17.6417 5.26667 18.4167 5.85 19.1ZM12 15C11.0167 15 10.1875 14.6625 9.5125 13.9875C8.8375 13.3125 8.5 12.4833 8.5 11.5C8.5 10.5167 8.8375 9.6875 9.5125 9.0125C10.1875 8.3375 11.0167 8 12 8C12.9833 8 13.8125 8.3375 14.4875 9.0125C15.1625 9.6875 15.5 10.5167 15.5 11.5C15.5 12.4833 15.1625 13.3125 14.4875 13.9875C13.8125 14.6625 12.9833 15 12 15ZM12 24C10.6167 24 9.31667 23.7375 8.1 23.2125C6.88333 22.6875 5.825 21.975 4.925 21.075C4.025 20.175 3.3125 19.1167 2.7875 17.9C2.2625 16.6833 2 15.3833 2 14C2 12.6167 2.2625 11.3167 2.7875 10.1C3.3125 8.88333 4.025 7.825 4.925 6.925C5.825 6.025 6.88333 5.3125 8.1 4.7875C9.31667 4.2625 10.6167 4 12 4C13.3833 4 14.6833 4.2625 15.9 4.7875C17.1167 5.3125 18.175 6.025 19.075 6.925C19.975 7.825 20.6875 8.88333 21.2125 10.1C21.7375 11.3167 22 12.6167 22 14C22 15.3833 21.7375 16.6833 21.2125 17.9C20.6875 19.1167 19.975 20.175 19.075 21.075C18.175 21.975 17.1167 22.6875 15.9 23.2125C14.6833 23.7375 13.3833 24 12 24ZM12 22C12.8833 22 13.7167 21.8708 14.5 21.6125C15.2833 21.3542 16 20.9833 16.65 20.5C16 20.0167 15.2833 19.6458 14.5 19.3875C13.7167 19.1292 12.8833 19 12 19C11.1167 19 10.2833 19.1292 9.5 19.3875C8.71667 19.6458 8 20.0167 7.35 20.5C8 20.9833 8.71667 21.3542 9.5 21.6125C10.2833 21.8708 11.1167 22 12 22ZM12 13C12.4333 13 12.7917 12.8583 13.075 12.575C13.3583 12.2917 13.5 11.9333 13.5 11.5C13.5 11.0667 13.3583 10.7083 13.075 10.425C12.7917 10.1417 12.4333 10 12 10C11.5667 10 11.2083 10.1417 10.925 10.425C10.6417 10.7083 10.5 11.0667 10.5 11.5C10.5 11.9333 10.6417 12.2917 10.925 12.575C11.2083 12.8583 11.5667 13 12 13Z"/>
</svg>
