<svg width="50" height="49" viewBox="0 0 50 49" fill="currentColor" xmlns="http://www.w3.org/2000/svg">
<path d="M10.9375 12.0233C10.375 10.69 9.57291 9.50253 8.53125 8.46083C7.57291 7.50254 6.39583 6.71087 5 6.08583C3.79166 5.54421 2.40625 5.27337 0.84375 5.27333V0.585831C2.98958 0.585877 4.96874 0.971294 6.78125 1.74208C8.67707 2.55463 10.3646 3.69004 11.8438 5.14833C13.3437 6.62754 14.4896 8.32545 15.2812 10.2421C15.8437 11.5754 16.6458 12.7629 17.6875 13.8046C18.6458 14.7629 19.8229 15.5546 21.2188 16.1796C22.4271 16.7213 23.8125 16.9921 25.375 16.9921C26.875 16.9921 28.2604 16.7213 29.5312 16.1796C30.8645 15.6171 32.0416 14.8254 33.0625 13.8046C34.1041 12.7629 34.9062 11.5754 35.4688 10.2421C36.2604 8.32545 37.4062 6.62754 38.9062 5.14833C40.3854 3.69004 42.0729 2.55463 43.9688 1.74208C45.7812 0.971294 47.7604 0.585877 49.9062 0.585831V5.27333C48.3437 5.27337 46.9583 5.54421 45.75 6.08583C44.3541 6.71087 43.177 7.50254 42.2188 8.46083C41.177 9.50253 40.375 10.69 39.8125 12.0233C39.0208 13.9192 37.875 15.6171 36.375 17.1171C35.6458 17.8463 34.6979 18.5859 33.5312 19.3358C34.6979 20.0859 35.6458 20.8254 36.375 21.5546C37.875 23.0546 39.0208 24.7525 39.8125 26.6483C40.5833 28.5233 40.9687 30.5338 40.9688 32.6796C40.9687 34.7629 40.5833 36.7421 39.8125 38.6171C39 40.5338 37.8541 42.2317 36.375 43.7108C34.8958 45.1692 33.2083 46.3046 31.3125 47.1171C29.5 47.8879 27.5208 48.2733 25.375 48.2733C23.125 48.2733 21.1458 47.8879 19.4375 47.1171C17.4583 46.2212 15.7708 45.0858 14.375 43.7108C12.8958 42.2317 11.75 40.5338 10.9375 38.6171C10.1667 36.7421 9.78124 34.7629 9.78125 32.6796C9.78124 30.5338 10.1667 28.5233 10.9375 26.6483C11.7708 24.6275 12.9167 22.9296 14.375 21.5546C15.2708 20.7004 16.2292 19.9609 17.25 19.3358C16.2083 18.7109 15.25 17.9713 14.375 17.1171C12.9167 15.7004 11.7708 14.0025 10.9375 12.0233ZM29.5312 22.4921C28.2604 21.9504 26.875 21.6796 25.375 21.6796C23.875 21.6796 22.4896 21.9504 21.2188 22.4921C19.9271 23.0754 18.75 23.8671 17.6875 24.8671C16.6042 25.9921 15.8021 27.1796 15.2812 28.4296C14.7396 29.7421 14.4687 31.1588 14.4688 32.6796C14.4687 34.1379 14.7396 35.5233 15.2812 36.8358C15.8021 38.0858 16.6042 39.2733 17.6875 40.3983C18.75 41.3983 19.9271 42.19 21.2188 42.7733C22.4896 43.315 23.875 43.5858 25.375 43.5858C26.875 43.5858 28.2604 43.315 29.5312 42.7733C30.8229 42.19 32 41.3983 33.0625 40.3983C34.1458 39.2733 34.9479 38.0858 35.4688 36.8358C36.0104 35.5233 36.2812 34.1379 36.2812 32.6796C36.2812 31.1588 36.0104 29.7421 35.4688 28.4296C34.9479 27.1796 34.1458 25.9921 33.0625 24.8671C32 23.8671 30.8229 23.0754 29.5312 22.4921Z"/>
</svg>
