<svg width="50" height="50" viewBox="0 0 50 50" fill="none" xmlns="http://www.w3.org/2000/svg">
<circle cx="25" cy="25" r="25" fill="black"/>
<circle cx="25" cy="25" r="24.5" stroke="white"/>
<circle cx="25" cy="25.0001" r="22.25" stroke="white" stroke-width="0.5"/>
<circle cx="25.0002" cy="25" r="20.5" stroke="white"/>
<mask id="path-5-inside-1_258_65" fill="white">
<ellipse cx="48.25" cy="25" rx="0.5" ry="0.75" transform="rotate(-90 48.25 25)"/>
</mask>
<ellipse cx="48.25" cy="25" rx="0.5" ry="0.75" transform="rotate(-90 48.25 25)" fill="white"/>
<path d="M48.25 25.5C48.2872 25.5 48.2757 25.5119 48.2256 25.4785C48.1826 25.4498 48 25.3003 48 25H50C50 24.4235 49.6495 24.0241 49.335 23.8144C49.0135 23.6001 48.627 23.5 48.25 23.5V25.5ZM48 25C48 24.6997 48.1826 24.5502 48.2256 24.5215C48.2757 24.4881 48.2872 24.5 48.25 24.5V26.5C48.627 26.5 49.0135 26.3999 49.335 26.1856C49.6495 25.9759 50 25.5765 50 25H48ZM48.25 24.5C48.2128 24.5 48.2243 24.4881 48.2744 24.5215C48.3174 24.5502 48.5 24.6997 48.5 25H46.5C46.5 25.5765 46.8505 25.9759 47.165 26.1856C47.4865 26.3999 47.873 26.5 48.25 26.5V24.5ZM48.5 25C48.5 25.3003 48.3174 25.4498 48.2744 25.4785C48.2243 25.5119 48.2128 25.5 48.25 25.5V23.5C47.873 23.5 47.4865 23.6001 47.165 23.8144C46.8505 24.0241 46.5 24.4235 46.5 25H48.5Z" fill="white" mask="url(#path-5-inside-1_258_65)"/>
<mask id="path-7-inside-2_258_65" fill="white">
<ellipse cx="1.75" cy="25" rx="0.5" ry="0.75" transform="rotate(-90 1.75 25)"/>
</mask>
<ellipse cx="1.75" cy="25" rx="0.5" ry="0.75" transform="rotate(-90 1.75 25)" fill="white"/>
<path d="M1.75 25.5C1.78722 25.5 1.77568 25.5119 1.72563 25.4785C1.68257 25.4498 1.5 25.3003 1.5 25H3.5C3.5 24.4235 3.14954 24.0241 2.83503 23.8144C2.51353 23.6001 2.127 23.5 1.75 23.5V25.5ZM1.5 25C1.5 24.6997 1.68257 24.5502 1.72563 24.5215C1.77568 24.4881 1.78722 24.5 1.75 24.5V26.5C2.127 26.5 2.51353 26.3999 2.83503 26.1856C3.14954 25.9759 3.5 25.5765 3.5 25H1.5ZM1.75 24.5C1.71278 24.5 1.72432 24.4881 1.77437 24.5215C1.81743 24.5502 2 24.6997 2 25H0C0 25.5765 0.350463 25.9759 0.66497 26.1856C0.986467 26.3999 1.373 26.5 1.75 26.5V24.5ZM2 25C2 25.3003 1.81743 25.4498 1.77437 25.4785C1.72432 25.5119 1.71278 25.5 1.75 25.5V23.5C1.373 23.5 0.986467 23.6001 0.66497 23.8144C0.350463 24.0241 0 24.4235 0 25H2Z" fill="white" mask="url(#path-7-inside-2_258_65)"/>
<mask id="path-9-inside-3_258_65" fill="white">
<ellipse cx="25" cy="1.75003" rx="0.5" ry="0.75"/>
</mask>
<ellipse cx="25" cy="1.75003" rx="0.5" ry="0.75" fill="white"/>
<path d="M24.5 1.75003C24.5 1.78725 24.4881 1.77571 24.5215 1.72566C24.5502 1.6826 24.6997 1.50003 25 1.50003V3.50003C25.5765 3.50003 25.9759 3.14957 26.1856 2.83506C26.3999 2.51356 26.5 2.12703 26.5 1.75003H24.5ZM25 1.50003C25.3003 1.50003 25.4498 1.6826 25.4785 1.72566C25.5119 1.77571 25.5 1.78725 25.5 1.75003H23.5C23.5 2.12703 23.6001 2.51356 23.8144 2.83506C24.0241 3.14957 24.4235 3.50003 25 3.50003V1.50003ZM25.5 1.75003C25.5 1.71281 25.5119 1.72435 25.4785 1.7744C25.4498 1.81746 25.3003 2.00003 25 2.00003V3.05176e-05C24.4235 3.05176e-05 24.0241 0.350493 23.8144 0.665C23.6001 0.986497 23.5 1.37304 23.5 1.75003H25.5ZM25 2.00003C24.6997 2.00003 24.5502 1.81746 24.5215 1.7744C24.4881 1.72435 24.5 1.71281 24.5 1.75003H26.5C26.5 1.37304 26.3999 0.986497 26.1856 0.665C25.9759 0.350493 25.5765 3.05176e-05 25 3.05176e-05V2.00003Z" fill="white" mask="url(#path-9-inside-3_258_65)"/>
<mask id="path-11-inside-4_258_65" fill="white">
<ellipse cx="25" cy="48.2499" rx="0.5" ry="0.75"/>
</mask>
<ellipse cx="25" cy="48.2499" rx="0.5" ry="0.75" fill="white"/>
<path d="M24.5 48.2499C24.5 48.2871 24.4881 48.2756 24.5215 48.2255C24.5502 48.1825 24.6997 47.9999 25 47.9999V49.9999C25.5765 49.9999 25.9759 49.6494 26.1856 49.3349C26.3999 49.0134 26.5 48.6269 26.5 48.2499H24.5ZM25 47.9999C25.3003 47.9999 25.4498 48.1825 25.4785 48.2255C25.5119 48.2756 25.5 48.2871 25.5 48.2499H23.5C23.5 48.6269 23.6001 49.0134 23.8144 49.3349C24.0241 49.6494 24.4235 49.9999 25 49.9999V47.9999ZM25.5 48.2499C25.5 48.2127 25.5119 48.2242 25.4785 48.2743C25.4498 48.3173 25.3003 48.4999 25 48.4999V46.4999C24.4235 46.4999 24.0241 46.8504 23.8144 47.1649C23.6001 47.4864 23.5 47.8729 23.5 48.2499H25.5ZM25 48.4999C24.6997 48.4999 24.5502 48.3173 24.5215 48.2743C24.4881 48.2242 24.5 48.2127 24.5 48.2499H26.5C26.5 47.8729 26.3999 47.4864 26.1856 47.1649C25.9759 46.8504 25.5765 46.4999 25 46.4999V48.4999Z" fill="white" mask="url(#path-11-inside-4_258_65)"/>
<path d="M25.3336 24.1781L20.6252 19.5L18.0002 24.6839M25.3336 24.1781L30.1252 20.0057L33.0002 24.6839M25.3336 24.1781L30.1252 30.5L33.0002 24.6839M25.3336 24.1781L20.6252 30.5L18.0002 24.6839M33.0002 24.6839H18.0002" stroke="white" stroke-width="0.5"/>
<path d="M25.3104 11.5L20.7191 19.4679L15 18.3532L18.1012 24.6284L15 32.0596L20.7191 30.4908L25.3104 38.5L29.942 30.4908L35.5 31.8532L32.8016 24.6284L35.5 18.3532L29.942 19.9633L25.3104 11.5Z" stroke="white"/>
</svg>
