<svg width="20" height="10" viewBox="0 0 20 10" fill="none" xmlns="http://www.w3.org/2000/svg">
<path d="M20 0H0V10H20V0Z" fill="#B22234"/>
<path d="M0 1.15381H20ZM20 2.69227H0ZM0 4.23073H20ZM20 5.76919H0ZM0 7.30765H20ZM20 8.84612H0Z" fill="black"/>
<path d="M0 1.15381H20M20 2.69227H0M0 4.23073H20M20 5.76919H0M0 7.30765H20M20 8.84612H0" stroke="white" stroke-width="0.7"/>
<path d="M8 0H0V5.38462H8V0Z" fill="#3C3B6E"/>
<path d="M0.666677 0.230713L0.857053 0.787334L0.358643 0.443323H0.974712L0.476301 0.787334L0.666677 0.230713Z" fill="white"/>
<path d="M0.666677 1.30762L0.857053 1.86424L0.358643 1.52023H0.974712L0.476301 1.86424L0.666677 1.30762Z" fill="white"/>
<path d="M0.666677 2.38452L0.857053 2.94114L0.358643 2.59713H0.974712L0.476301 2.94114L0.666677 2.38452Z" fill="white"/>
<path d="M0.666677 3.46143L0.857053 4.01805L0.358643 3.67404H0.974712L0.476301 4.01805L0.666677 3.46143Z" fill="white"/>
<path d="M0.666677 4.53833L0.857053 5.09495L0.358643 4.75094H0.974712L0.476301 5.09495L0.666677 4.53833Z" fill="white"/>
<path d="M1.33343 0.769287L1.5238 1.32591L1.02539 0.981897H1.64146L1.14305 1.32591L1.33343 0.769287Z" fill="white"/>
<path d="M1.33343 1.84619L1.5238 2.40281L1.02539 2.0588H1.64146L1.14305 2.40281L1.33343 1.84619Z" fill="white"/>
<path d="M1.33343 2.9231L1.5238 3.47972L1.02539 3.13571H1.64146L1.14305 3.47972L1.33343 2.9231Z" fill="white"/>
<path d="M1.33343 4L1.5238 4.55662L1.02539 4.21261H1.64146L1.14305 4.55662L1.33343 4Z" fill="white"/>
<path d="M1.99993 0.230713L2.1903 0.787334L1.69189 0.443323H2.30796L1.80955 0.787334L1.99993 0.230713Z" fill="white"/>
<path d="M1.99993 1.30762L2.1903 1.86424L1.69189 1.52023H2.30796L1.80955 1.86424L1.99993 1.30762Z" fill="white"/>
<path d="M1.99993 2.38452L2.1903 2.94114L1.69189 2.59713H2.30796L1.80955 2.94114L1.99993 2.38452Z" fill="white"/>
<path d="M1.99993 3.46143L2.1903 4.01805L1.69189 3.67404H2.30796L1.80955 4.01805L1.99993 3.46143Z" fill="white"/>
<path d="M1.99993 4.53833L2.1903 5.09495L1.69189 4.75094H2.30796L1.80955 5.09495L1.99993 4.53833Z" fill="white"/>
<path d="M2.66668 0.769287L2.85705 1.32591L2.35864 0.981897H2.97471L2.4763 1.32591L2.66668 0.769287Z" fill="white"/>
<path d="M2.66668 1.84619L2.85705 2.40281L2.35864 2.0588H2.97471L2.4763 2.40281L2.66668 1.84619Z" fill="white"/>
<path d="M2.66668 2.9231L2.85705 3.47972L2.35864 3.13571H2.97471L2.4763 3.47972L2.66668 2.9231Z" fill="white"/>
<path d="M2.66668 4L2.85705 4.55662L2.35864 4.21261H2.97471L2.4763 4.55662L2.66668 4Z" fill="white"/>
<path d="M3.33343 0.230713L3.5238 0.787334L3.02539 0.443323H3.64146L3.14305 0.787334L3.33343 0.230713Z" fill="white"/>
<path d="M3.33343 1.30762L3.5238 1.86424L3.02539 1.52023H3.64146L3.14305 1.86424L3.33343 1.30762Z" fill="white"/>
<path d="M3.33343 2.38452L3.5238 2.94114L3.02539 2.59713H3.64146L3.14305 2.94114L3.33343 2.38452Z" fill="white"/>
<path d="M3.33343 3.46143L3.5238 4.01805L3.02539 3.67404H3.64146L3.14305 4.01805L3.33343 3.46143Z" fill="white"/>
<path d="M3.33343 4.53833L3.5238 5.09495L3.02539 4.75094H3.64146L3.14305 5.09495L3.33343 4.53833Z" fill="white"/>
<path d="M4.00017 0.769287L4.19055 1.32591L3.69214 0.981897H4.30821L3.8098 1.32591L4.00017 0.769287Z" fill="white"/>
<path d="M4.00017 1.84619L4.19055 2.40281L3.69214 2.0588H4.30821L3.8098 2.40281L4.00017 1.84619Z" fill="white"/>
<path d="M4.00017 2.9231L4.19055 3.47972L3.69214 3.13571H4.30821L3.8098 3.47972L4.00017 2.9231Z" fill="white"/>
<path d="M4.00017 4L4.19055 4.55662L3.69214 4.21261H4.30821L3.8098 4.55662L4.00017 4Z" fill="white"/>
<path d="M4.66668 0.230713L4.85705 0.787334L4.35864 0.443323H4.97471L4.4763 0.787334L4.66668 0.230713Z" fill="white"/>
<path d="M4.66668 1.30762L4.85705 1.86424L4.35864 1.52023H4.97471L4.4763 1.86424L4.66668 1.30762Z" fill="white"/>
<path d="M4.66668 2.38452L4.85705 2.94114L4.35864 2.59713H4.97471L4.4763 2.94114L4.66668 2.38452Z" fill="white"/>
<path d="M4.66668 3.46143L4.85705 4.01805L4.35864 3.67404H4.97471L4.4763 4.01805L4.66668 3.46143Z" fill="white"/>
<path d="M4.66668 4.53833L4.85705 5.09495L4.35864 4.75094H4.97471L4.4763 5.09495L4.66668 4.53833Z" fill="white"/>
<path d="M5.33343 0.769287L5.5238 1.32591L5.02539 0.981897H5.64146L5.14305 1.32591L5.33343 0.769287Z" fill="white"/>
<path d="M5.33343 1.84619L5.5238 2.40281L5.02539 2.0588H5.64146L5.14305 2.40281L5.33343 1.84619Z" fill="white"/>
<path d="M5.33343 2.9231L5.5238 3.47972L5.02539 3.13571H5.64146L5.14305 3.47972L5.33343 2.9231Z" fill="white"/>
<path d="M5.33343 4L5.5238 4.55662L5.02539 4.21261H5.64146L5.14305 4.55662L5.33343 4Z" fill="white"/>
<path d="M5.99993 0.230713L6.1903 0.787334L5.69189 0.443323H6.30796L5.80955 0.787334L5.99993 0.230713Z" fill="white"/>
<path d="M5.99993 1.30762L6.1903 1.86424L5.69189 1.52023H6.30796L5.80955 1.86424L5.99993 1.30762Z" fill="white"/>
<path d="M5.99993 2.38452L6.1903 2.94114L5.69189 2.59713H6.30796L5.80955 2.94114L5.99993 2.38452Z" fill="white"/>
<path d="M5.99993 3.46143L6.1903 4.01805L5.69189 3.67404H6.30796L5.80955 4.01805L5.99993 3.46143Z" fill="white"/>
<path d="M5.99993 4.53833L6.1903 5.09495L5.69189 4.75094H6.30796L5.80955 5.09495L5.99993 4.53833Z" fill="white"/>
<path d="M6.66668 0.769287L6.85705 1.32591L6.35864 0.981897H6.97471L6.4763 1.32591L6.66668 0.769287Z" fill="white"/>
<path d="M6.66668 1.84619L6.85705 2.40281L6.35864 2.0588H6.97471L6.4763 2.40281L6.66668 1.84619Z" fill="white"/>
<path d="M6.66668 2.9231L6.85705 3.47972L6.35864 3.13571H6.97471L6.4763 3.47972L6.66668 2.9231Z" fill="white"/>
<path d="M6.66668 4L6.85705 4.55662L6.35864 4.21261H6.97471L6.4763 4.55662L6.66668 4Z" fill="white"/>
<path d="M7.33343 0.230713L7.5238 0.787334L7.02539 0.443323H7.64146L7.14305 0.787334L7.33343 0.230713Z" fill="white"/>
<path d="M7.33343 1.30762L7.5238 1.86424L7.02539 1.52023H7.64146L7.14305 1.86424L7.33343 1.30762Z" fill="white"/>
<path d="M7.33343 2.38452L7.5238 2.94114L7.02539 2.59713H7.64146L7.14305 2.94114L7.33343 2.38452Z" fill="white"/>
<path d="M7.33343 3.46143L7.5238 4.01805L7.02539 3.67404H7.64146L7.14305 4.01805L7.33343 3.46143Z" fill="white"/>
<path d="M7.33343 4.53833L7.5238 5.09495L7.02539 4.75094H7.64146L7.14305 5.09495L7.33343 4.53833Z" fill="white"/>
</svg>
