<svg width="51" height="60" viewBox="0 0 51 60" fill="currentColor" xmlns="http://www.w3.org/2000/svg">
<path d="M38.3594 45.3983C40.6718 43.065 42.4427 40.4088 43.6719 37.4296C44.901 34.4296 45.5156 31.2629 45.5156 27.9296C45.5156 25.0338 45.3385 22.9296 44.9844 21.6171C44.4427 19.5963 43.6927 18.5859 42.7344 18.5858C42.1927 18.5859 41.4323 19.565 40.4531 21.5233C39.0573 24.315 38.3593 27.44 38.3594 30.8983V45.3983ZM34.6094 54.0233C33.7135 54.5025 32.7968 54.9504 31.8594 55.3671C29.5468 56.3879 27.026 57.0442 24.2969 57.3358V52.6171C26.3593 52.3254 28.2864 51.7942 30.0781 51.0233C31.3698 50.4608 32.5885 49.815 33.7344 49.0858C33.6927 48.6067 33.6718 48.1067 33.6719 47.5858V18.8358C33.6718 15.1275 33.4531 12.3255 33.0156 10.4296C32.3489 7.51295 31.526 6.05462 30.5469 6.05458C29.5468 6.05462 28.1614 7.9192 26.3906 11.6483C24.9948 14.5859 24.2968 17.7109 24.2969 21.0233V47.6171H19.6094V18.8358C19.6093 15.1484 19.3906 12.3463 18.9531 10.4296C18.3073 7.51295 17.4844 6.05462 16.4844 6.05458C15.4844 6.05462 14.0989 7.9192 12.3281 11.6483C10.9323 14.5859 10.2344 17.7109 10.2344 21.0233V47.6171H5.54688V18.8358C5.54687 14.4817 4.98436 10.6171 3.85938 7.24208C3.21354 5.30462 2.10936 3.34629 0.546875 1.36708H5.35938C6.17186 2.17963 6.89062 3.17963 7.51562 4.36708C8.22395 5.74212 8.78646 7.28379 9.20312 8.99208C9.82811 7.13795 10.6615 5.53379 11.7031 4.17958C13.8073 1.47129 15.526 0.117131 16.8594 0.117081C18.3385 0.117131 19.9114 1.53379 21.5781 4.36708C22.2239 5.45046 22.7864 6.99212 23.2656 8.99208C23.8906 7.13795 24.7239 5.53379 25.7656 4.17958C27.8698 1.47129 29.6927 0.117131 31.2344 0.117081C32.7135 0.117131 34.2864 1.53379 35.9531 4.36708C36.8489 5.86712 37.4114 7.40879 37.6406 8.99208C37.9531 11.1796 38.1614 13.6692 38.2656 16.4608C38.6823 15.6067 39.2031 14.8046 39.8281 14.0546C41.3489 12.2421 42.6823 11.3359 43.8281 11.3358C45.4948 11.3359 46.9427 12.9817 48.1719 16.2733C49.526 19.8984 50.2031 23.7838 50.2031 27.9296C50.2031 31.9921 49.4739 35.7525 48.0156 39.2108C46.4322 42.9608 44.2552 46.19 41.4844 48.8983C40.6093 49.7525 39.6927 50.5546 38.7344 51.3046C38.9635 52.2837 39.2656 53.2317 39.6406 54.1483C40.4531 56.1275 41.7135 57.9921 43.4219 59.7421H37.3594C36.4218 58.2421 35.7343 56.9712 35.2969 55.9296C35.0468 55.3046 34.8177 54.6692 34.6094 54.0233Z"/>
</svg>
