<svg width="49" height="49" viewBox="0 0 49 49" fill="currentColor" xmlns="http://www.w3.org/2000/svg">
<path d="M25.7031 33.8202C25.3281 33.2577 24.9739 32.664 24.6406 32.0389C22.9531 28.8723 22.1093 25.3827 22.1094 21.5702V18.9452C22.1093 15.2369 21.8906 12.4348 21.4531 10.5389C20.7864 7.62231 19.9635 6.16398 18.9844 6.16394C17.9843 6.16398 16.5989 8.02856 14.8281 11.7577C13.4323 14.6952 12.7344 17.8202 12.7344 21.1327V28.9764H8.04688V18.9452C8.04686 15.2577 7.77602 12.4556 7.23438 10.5389C6.40102 7.62231 4.74479 6.16398 2.26562 6.16394H0.015625V0.22644H2.64062C5.78645 0.22649 8.1927 1.64315 9.85938 4.47644C10.776 6.03898 11.3906 7.58065 11.7031 9.10144C12.3281 7.24731 13.1614 5.64315 14.2031 4.28894C16.3073 1.58065 18.1302 0.22649 19.6719 0.22644C21.151 0.22649 22.7239 1.64315 24.3906 4.47644C25.2864 5.97648 25.8489 7.51815 26.0781 9.10144C26.4948 11.9973 26.7031 14.4869 26.7031 16.5702V20.0389C26.7031 23.0181 27.0989 25.5702 27.8906 27.6952C28.6614 26.0077 29.5364 24.664 30.5156 23.6639C31.4531 22.7056 32.7031 21.914 34.2656 21.2889C35.5156 20.789 36.9635 20.539 38.6094 20.5389C40.0052 20.539 41.2968 20.789 42.4844 21.2889C43.6927 21.789 44.7864 22.5286 45.7656 23.5077C46.7239 24.4661 47.4635 25.5702 47.9844 26.8202C48.4843 28.0494 48.7343 29.3515 48.7344 30.7264C48.7343 32.0806 48.4843 33.3723 47.9844 34.6014C47.4635 35.8515 46.7239 36.9556 45.7656 37.9139C44.8697 38.8098 43.776 39.5494 42.4844 40.1327C41.3802 40.6327 39.9843 40.8827 38.2969 40.8827C36.5885 40.8827 34.9843 40.6327 33.4844 40.1327C31.9635 39.6327 30.5573 38.8619 29.2656 37.8202C28.9114 38.7369 28.5364 39.6015 28.1406 40.4139C27.2239 42.2473 26.1302 43.6952 24.8594 44.7577C23.2135 46.1327 21.6823 47.091 20.2656 47.6327C18.5573 48.2994 16.7656 48.6327 14.8906 48.6327H13.1406V43.9452H14.8906C16.2864 43.9452 17.4739 43.7264 18.4531 43.2889C19.6614 42.7681 20.651 42.1431 21.4219 41.4139C22.2968 40.6223 23.026 39.6952 23.6094 38.6327C24.276 37.4244 24.9739 35.8202 25.7031 33.8202ZM31.0156 32.6014C32.5781 34.3098 34.0885 35.3723 35.5469 35.7889C36.4843 36.0598 37.4114 36.1952 38.3281 36.1952C39.3073 36.1952 40.0989 36.0598 40.7031 35.7889C41.3698 35.4973 41.9635 35.1015 42.4844 34.6014C42.9843 34.1015 43.3906 33.5077 43.7031 32.8202C43.9739 32.216 44.1093 31.5181 44.1094 30.7264C44.1093 29.9765 43.9739 29.2681 43.7031 28.6014C43.4531 27.9765 43.0468 27.3827 42.4844 26.8202C41.9635 26.3202 41.3698 25.9244 40.7031 25.6327C40.0781 25.3619 39.3906 25.2265 38.6406 25.2264C37.9323 25.2265 37.1927 25.3619 36.4219 25.6327C35.5677 25.9452 34.9218 26.3411 34.4844 26.8202C33.0052 28.4869 31.8489 30.414 31.0156 32.6014Z"/>
</svg>
