<svg width="40" height="47" viewBox="0 0 40 47" fill="currentColor" xmlns="http://www.w3.org/2000/svg">
<path d="M24.7812 25.7889H14.9688C14.7187 29.914 13.8542 33.7577 12.375 37.3202C11.0208 40.591 9.06248 43.7369 6.5 46.7577H0.03125C3.84374 43.0494 6.5104 39.2994 8.03125 35.5077C9.28123 32.4244 10.0208 29.1848 10.25 25.7889H0.96875V21.1014H10.25C10.0208 17.7056 9.28123 14.4661 8.03125 11.3827C6.48957 7.59106 3.82291 3.83065 0.03125 0.10144H6.5C9.04165 3.12232 11 6.27856 12.375 9.57019C13.875 13.1327 14.7396 16.9765 14.9688 21.1014H24.7812C25.0104 16.9765 25.875 13.1327 27.375 9.57019C28.75 6.27856 30.7083 3.12232 33.25 0.10144H39.7188C35.927 3.83065 33.2604 7.59106 31.7188 11.3827C30.4687 14.4661 29.7291 17.7056 29.5 21.1014H38.4688V25.7889H29.5C29.7291 29.1848 30.4687 32.4244 31.7188 35.5077C33.2395 39.2994 35.9062 43.0494 39.7188 46.7577H33.25C30.6875 43.7369 28.7291 40.591 27.375 37.3202C25.8958 33.6952 25.0312 29.8515 24.7812 25.7889Z"/>
</svg>
