<svg width="52" height="62" viewBox="0 0 52 62" fill="currentColor" xmlns="http://www.w3.org/2000/svg">
<path d="M42.8125 57.0858C41.2083 57.0858 39.9166 56.8671 38.9375 56.4296C37.8125 55.9296 36.875 55.3046 36.125 54.5546C35.2916 53.7212 34.6666 52.7942 34.25 51.7733C33.8333 50.7317 33.625 49.5233 33.625 48.1483V19.3983C33.625 15.69 33.4062 12.888 32.9688 10.9921C32.302 8.07545 31.4791 6.61712 30.5 6.61708C29.5 6.61712 28.1145 8.4817 26.3438 12.2108C24.9479 15.1484 24.25 18.2734 24.25 21.5858V48.1796H19.5625V19.3983C19.5625 15.7109 19.3437 12.9088 18.9062 10.9921C18.2604 8.07545 17.4375 6.61712 16.4375 6.61708C15.4375 6.61712 14.0521 8.4817 12.2812 12.2108C10.8854 15.1484 10.1875 18.2734 10.1875 21.5858V48.1796H5.5V19.3983C5.49999 15.0442 4.93749 11.1796 3.8125 7.80458C3.16666 5.86712 2.0625 3.90879 0.5 1.92958H5.3125C6.12499 2.74213 6.84374 3.74213 7.46875 4.92958C8.17707 6.30462 8.73957 7.84629 9.15625 9.55458C9.78124 7.70045 10.6146 6.09629 11.6562 4.74208C13.7604 2.03379 15.4792 0.679631 16.8125 0.679581C18.2917 0.679631 19.8646 2.09629 21.5312 4.92958C22.1771 6.01296 22.7396 7.55462 23.2188 9.55458C23.8437 7.70045 24.6771 6.09629 25.7188 4.74208C27.8229 2.03379 29.6458 0.679631 31.1875 0.679581C32.6666 0.679631 34.2395 2.09629 35.9062 4.92958C36.802 6.42962 37.3645 7.97129 37.5938 9.55458C38.0104 12.4505 38.2187 14.94 38.2188 17.0233V48.1796C38.2187 48.9713 38.3125 49.565 38.5 49.9608C38.75 50.5025 39.0416 50.9296 39.375 51.2421C39.75 51.5962 40.1666 51.8775 40.625 52.0858C41.0833 52.2942 41.7916 52.3983 42.75 52.3983H44.5625V48.3358L51.25 54.7421L44.5625 61.1796V57.0858H42.8125Z"/>
</svg>
